Coordinates
version=1
nRows=17
nColumns=40
inDegrees=yes

Units are S.I. units (second, meters, Newtons, ...)
Angles are in degrees.

endheader
time	pelvis_tilt	pelvis_list	pelvis_rotation	pelvis_tx	pelvis_ty	pelvis_tz	hip_flexion_r	hip_adduction_r	hip_rotation_r	knee_angle_r	knee_angle_r_beta	ankle_angle_r	subtalar_angle_r	mtp_angle_r	hip_flexion_l	hip_adduction_l	hip_rotation_l	knee_angle_l	knee_angle_l_beta	ankle_angle_l	subtalar_angle_l	mtp_angle_l	lumbar_extension	lumbar_bending	lumbar_rotation	arm_flex_r	arm_add_r	arm_rot_r	elbow_flex_r	pro_sup_r	wrist_flex_r	wrist_dev_r	arm_flex_l	arm_add_l	arm_rot_l	elbow_flex_l	pro_sup_l	wrist_flex_l	wrist_dev_l
     45.83000000	     -5.74374511	     -3.44126487	      1.98893318	      1.08676642	      0.91363033	      0.43983095	     -0.44569455	     -3.88304975	    -14.46657642	     30.26845504	     30.26845504	     14.21454629	     -2.30118911	    -11.83570965	     30.53732882	     -5.27459255	     -4.57616848	     26.49124581	     26.49124581	      4.53960867	    -14.45874966	      2.61542144	     -6.73157559	      4.90259502	      3.10721569	     37.88803847	    -15.51130827	     -6.43294766	    100.76303807	     44.34825149	      0.00000000	      0.00000000	    -15.25041609	     -6.53835828	      5.75015405	     20.29372502	     45.16290851	      0.00000000	      0.00000000
     45.84114286	     -5.67378420	     -3.25154851	      1.85955480	      1.08670772	      0.91523836	      0.43676904	      1.19689014	     -4.73748449	    -13.71465565	     34.12553735	     34.12553735	     11.94780480	     -4.77482557	    -13.15012194	     29.70243740	     -4.96787231	     -4.85703941	     26.40086322	     26.40086322	      5.30607030	    -14.35151696	      2.49982081	     -6.80594481	      4.79861635	      2.99027118	     35.95236236	    -15.43614557	     -6.45726938	    100.72496949	     44.35147658	      0.00000000	      0.00000000	    -14.00498725	     -6.50697924	      5.78768434	     20.72269268	     45.18807682	      0.00000000	      0.00000000
     45.85228571	     -5.58901060	     -3.27461210	      1.70024427	      1.08653498	      0.91695975	      0.43409655	      2.77530525	     -5.06290969	    -12.51607058	     37.39668554	     37.39668554	      7.46227256	     -9.58083408	    -18.69999621	     28.84431257	     -4.93245288	     -5.15587325	     26.27214788	     26.27214788	      6.21729522	    -13.96273236	      2.62645729	     -6.96679472	      4.91756415	      3.71433820	     33.10590942	    -15.84269874	     -7.83320115	    101.88377141	     44.40324857	      0.00000000	      0.00000000	    -12.21188405	     -6.59306346	      5.93501632	     21.16772853	     45.24084979	      0.00000000	      0.00000000
     45.86342857	     -5.59989765	     -3.09912328	      1.53002730	      1.08609089	      0.91840785	      0.43139228	      4.88003098	     -5.85808680	    -11.84070846	     41.58701324	     41.58701324	      5.09373898	    -11.83386057	    -18.24333744	     27.98351071	     -4.65357700	     -5.50328325	     25.92188035	     25.92188035	      6.78097804	    -13.76677716	      2.27668033	     -6.95131799	      4.82554303	      3.43387252	     31.12149746	    -15.58158637	     -7.63009311	    100.89254603	     44.43478011	      0.00000000	      0.00000000	    -10.90213251	     -6.58405298	      5.96505757	     21.77949334	     45.26960312	      0.00000000	      0.00000000
     45.87457143	     -5.58864628	     -2.97648407	      1.33259442	      1.08546603	      0.91988196	      0.42897195	      7.08556817	     -6.45277581	    -11.00986237	     45.71563789	     45.71563789	      2.77158239	    -14.12984472	    -16.83051629	     27.07150455	     -4.46234880	     -5.90395406	     25.49167155	     25.49167155	      7.24989818	    -13.44806071	      1.82281583	     -7.00230685	      4.77427165	      3.26895394	     29.02082949	    -15.35313290	     -7.63623635	     99.81312085	     44.47450735	      0.00000000	      0.00000000	     -9.52150590	     -6.63367939	      5.90212572	     22.66020364	     45.31352842	      0.00000000	      0.00000000
     45.88571429	     -5.54074305	     -2.76200750	      1.10300611	      1.08475175	      0.92125059	      0.42669068	      9.32237616	     -7.16462572	    -10.29993495	     49.73434806	     49.73434806	      0.62519523	    -15.77373173	    -15.43317508	     26.07936849	     -4.18123043	     -6.35454682	     24.99111564	     24.99111564	      7.73858108	    -13.12772067	      1.46110692	     -7.11984641	      4.62144029	      2.99234194	     26.88983090	    -14.99115578	     -7.49944398	     98.71493199	     44.50272289	      0.00000000	      0.00000000	     -8.12223618	     -6.74928834	      5.82438569	     23.47466009	     45.35515303	      0.00000000	      0.00000000
     45.89685714	     -5.52761562	     -2.73764643	      0.86705520	      1.08383185	      0.92249798	      0.42483452	     11.91244309	     -7.43351204	     -9.38096144	     54.11640393	     54.11640393	      1.14781421	    -15.92182786	     -6.49613130	     25.15031143	     -4.13345388	     -6.78643563	     24.44557500	     24.44557500	      7.67927973	    -12.94794275	     -0.04125542	     -7.20915805	      4.63700207	      2.91213108	     24.75940987	    -14.56260957	     -8.00052288	     96.83613420	     44.63018192	      0.00000000	      0.00000000	     -6.88189047	     -6.96536687	      5.32311795	     25.35820434	     45.48929219	      0.00000000	      0.00000000
     45.90800000	     -5.48609568	     -2.65665227	      0.61555411	      1.08287091	      0.92372059	      0.42302087	     14.19498718	     -7.75295527	     -8.65110839	     57.56679561	     57.56679561	     -0.29633533	    -17.08513602	     -4.39660154	     24.22841051	     -4.01602139	     -7.19102526	     23.99502738	     23.99502738	      8.07358750	    -12.63456971	     -0.44605867	     -7.31840017	      4.61748620	      2.93776831	     22.56735087	    -14.43495183	     -8.09323470	     94.63022927	     44.70856566	      0.00000000	      0.00000000	     -5.20728342	     -7.13923215	      5.12851396	     26.46543065	     45.55414934	      0.00000000	      0.00000000
     45.91914286	     -5.45230559	     -2.55404833	      0.36761002	      1.08181112	      0.92482439	      0.42135908	     16.63312372	     -8.00045919	     -7.88861489	     61.03016607	     61.03016607	     -0.04972171	    -17.24151716	      1.22801953	     23.28141187	     -3.86983123	     -7.60198634	     23.44756914	     23.44756914	      8.22767857	    -12.38221134	     -1.30326935	     -7.42504798	      4.57418227	      2.43234757	     20.84668350	    -13.65390940	     -8.15886801	     91.96492961	     44.82371342	      0.00000000	      0.00000000	     -3.95924071	     -7.38225830	      4.68645002	     28.05603353	     45.65214589	      0.00000000	      0.00000000
     45.93028571	     -5.34379113	     -2.46355426	      0.14189389	      1.08073527	      0.92595464	      0.41974192	     18.71748380	     -8.24944977	     -7.35974430	     63.68691274	     63.68691274	     -1.12019041	    -17.86293287	      1.53028004	     22.33065972	     -3.71694549	     -7.90242063	     23.03664370	     23.03664370	      8.62494983	    -12.17449255	     -1.45860396	     -7.69349417	      4.56672526	      2.19559640	     18.60857981	    -13.33620657	     -7.81116864	     90.37121078	     44.85667403	      0.00000000	      0.00000000	     -2.12240076	     -7.64276430	      4.57757181	     28.92908198	     45.69885329	      0.00000000	      0.00000000
     45.94142857	     -5.28545220	     -2.43741839	     -0.15403923	      1.07961670	      0.92698655	      0.41830971	     20.94354788	     -8.26083827	     -6.68204754	     66.18553604	     66.18553604	     -0.93538958	    -17.92865258	      4.25859571	     21.35828670	     -3.66574815	     -8.32812821	     22.48113446	     22.48113446	      8.84371324	    -11.83241542	     -2.19610634	     -7.77087002	      4.60410759	      2.03775777	     17.23313176	    -12.93874382	     -8.28842486	     85.70243701	     45.03254250	      0.00000000	      0.00000000	     -0.64953688	     -7.95189067	      4.29996787	     30.64177508	     45.76031452	      0.00000000	      0.00000000
     45.95257143	     -5.14990912	     -2.41649379	     -0.44578555	      1.07858873	      0.92806800	      0.41699111	     22.93131663	     -8.23590551	     -6.12358312	     68.13784001	     68.13784001	     -0.99512128	    -17.97394616	      5.17074505	     20.33881259	     -3.60373706	     -8.67666005	     21.99702586	     21.99702586	      9.10873270	    -11.62706487	     -2.69557557	     -7.99271290	      4.65465460	      1.80724536	     15.61912625	    -12.72147023	     -8.00677898	     82.01044450	     45.14718980	      0.00000000	      0.00000000	      0.95385607	     -8.30984180	      4.08209526	     32.15924248	     45.81328337	      0.00000000	      0.00000000
     45.96371429	     -5.02407219	     -2.39227897	     -0.74286392	      1.07749703	      0.92907002	      0.41568693	     24.83162025	     -8.19073397	     -5.64223178	     69.64233529	     69.64233529	     -1.08911729	    -17.96613107	      5.00351017	     19.33636905	     -3.52795464	     -9.03560707	     21.51332785	     21.51332785	      9.46024982	    -11.35860592	     -2.83886980	     -8.26054500	      4.73441229	      2.04532272	     13.52981853	    -12.93650308	     -7.82992681	     79.35373211	     45.22089784	      0.00000000	      0.00000000	      2.98648060	     -8.55033689	      3.94318558	     33.35057093	     45.86216869	      0.00000000	      0.00000000
     45.97485714	     -4.80090413	     -2.44375990	     -1.05631568	      1.07654888	      0.93019135	      0.41455102	     26.49282170	     -8.01235232	     -5.22943979	     70.65955220	     70.65955220	     -1.07353159	    -17.82230136	      4.69138387	     18.22359501	     -3.54586161	     -9.41365025	     21.04854448	     21.04854448	      9.81639626	    -11.04843263	     -3.10689861	     -8.59298959	      4.88890006	      2.25422090	     11.91346519	    -12.96146405	     -7.88740355	     75.35034265	     45.34829194	      0.00000000	      0.00000000	      5.02151020	     -8.83068460	      3.89809598	     34.65419894	     45.89779248	      0.00000000	      0.00000000
     45.98600000	     -4.55760069	     -2.51118121	     -1.36207318	      1.07563500	      0.93126820	      0.41348649	     28.00600415	     -7.79612064	     -4.89110859	     71.22572438	     71.22572438	     -1.00864424	    -17.61333770	      4.14006151	     17.10061677	     -3.57767005	     -9.79250390	     20.60189121	     20.60189121	     10.16278501	    -10.70896995	     -3.41681109	     -8.93070278	      5.04524618	      2.14845310	     10.75634005	    -12.70136810	     -7.93137364	     70.63257899	     45.49934328	      0.00000000	      0.00000000	      6.83925523	     -9.21963016	      3.97060540	     35.98169998	     45.91438224	      0.00000000	      0.00000000
     45.99714286	     -4.35238618	     -2.55636786	     -1.66364748	      1.07477492	      0.93223037	      0.41250722	     29.42480165	     -7.61968889	     -4.64434694	     71.32856868	     71.32856868	     -1.12050938	    -17.39575994	      3.05414486	     16.01091892	     -3.58080460	    -10.20515668	     20.13831934	     20.13831934	     10.44966303	    -10.36898498	     -3.77635341	     -9.16225169	      5.15962390	      1.38743844	     10.61237000	    -12.02918419	     -7.75130090	     64.18189506	     45.69597601	      0.00000000	      0.00000000	      8.14973723	    -10.02151712	      4.25861542	     37.70262053	     45.90002349	      0.00000000	      0.00000000
     46.00828571	     -4.10823209	     -2.63028061	     -1.98644964	      1.07397690	      0.93314917	      0.41163015	     30.66604714	     -7.40815685	     -4.45677702	     71.00057804	     71.00057804	     -1.14544695	    -17.08943622	      2.25648722	     14.88014484	     -3.61635393	    -10.62540353	     19.69760444	     19.69760444	     10.81493858	     -9.98395303	     -3.95517563	     -9.50636596	      5.32425634	      1.35945234	      9.65994273	    -12.03545902	     -7.50706249	     59.26865956	     45.83479868	      0.00000000	      0.00000000	      9.90046564	    -10.52997770	      4.36208207	     39.34725381	     45.91950765	      0.00000000	      0.00000000
